<?xml version="1.0" encoding="UTF-8" standalone="no"?>
<svg
   xmlns:dc="http://purl.org/dc/elements/1.1/"
   xmlns:cc="http://creativecommons.org/ns#"
   xmlns:rdf="http://www.w3.org/1999/02/22-rdf-syntax-ns#"
   xmlns:svg="http://www.w3.org/2000/svg"
   xmlns="http://www.w3.org/2000/svg"
   xmlns:xlink="http://www.w3.org/1999/xlink"
   xmlns:sodipodi="http://sodipodi.sourceforge.net/DTD/sodipodi-0.dtd"
   xmlns:inkscape="http://www.inkscape.org/namespaces/inkscape"
   width="151.66646mm"
   height="151.66811mm"
   viewBox="0 0 151.66646 151.66811"
   version="1.1"
   id="svg8"
   inkscape:version="1.0.1 (3bc2e813f5, 2020-09-07)"
   sodipodi:docname="linkedpipes.svg"
   inkscape:export-filename="C:\Users\Florian Thiery\Desktop\lplogo.png"
   inkscape:export-xdpi="334.95001"
   inkscape:export-ydpi="334.95001">
  <defs
     id="defs2">
    <rect
       id="SVGID_1_"
       width="96"
       height="96"
       x="0"
       y="0" />
    <path
       id="SVGID_3_"
       d="M 2,48 C 2,73.406 22.594,94 48,94 73.405,94 94,73.406 94,48 94,22.595 73.405,2 48,2 22.594,2 2,22.595 2,48" />
    <path
       id="SVGID_5_"
       d="M 2,48 C 2,69.986 17.43,88.359 38.049,92.908 39.293,90.546 40,87.856 40,85 40,75.611 32.389,68 23,68 15.268,68 9,61.732 9,54 9,46.268 15.268,40 23,40 28.523,40 33,35.523 33,30 V 20 C 33,14.477 37.477,10 43,10 47.751,10 51.721,6.684 52.74,2.242 51.181,2.082 49.601,2 48,2 22.594,2 2,22.595 2,48" />
    <rect
       id="SVGID_7_"
       width="96"
       height="96"
       x="0"
       y="0" />
    <path
       id="SVGID_9_"
       d="M 84,19.999 C 81.571,21.824 80,24.728 80,28 v 10 c 0,5.523 -4.477,10 -10,10 -5.523,0 -10,4.477 -10,10 0,5.523 4.477,10 10,10 5.523,0 10,4.478 10,10 v 3 l 0.01,0.02 C 88.633,72.658 94,60.959 94,48 94,37.429 90.426,27.698 84.431,19.929 Z" />
    <rect
       id="SVGID_11_"
       width="96"
       height="96"
       x="0"
       y="0" />
  </defs>
  <sodipodi:namedview
     id="base"
     pagecolor="#ffffff"
     bordercolor="#666666"
     borderopacity="1.0"
     inkscape:pageopacity="0.0"
     inkscape:pageshadow="2"
     inkscape:zoom="0.7"
     inkscape:cx="370.17124"
     inkscape:cy="-84.971599"
     inkscape:document-units="mm"
     inkscape:current-layer="layer1"
     inkscape:document-rotation="0"
     showgrid="false"
     fit-margin-top="0"
     fit-margin-left="0"
     fit-margin-right="0"
     fit-margin-bottom="0"
     inkscape:window-width="1920"
     inkscape:window-height="1137"
     inkscape:window-x="-8"
     inkscape:window-y="-4"
     inkscape:window-maximized="1" />
  <metadata
     id="metadata5">
    <rdf:RDF>
      <cc:Work
         rdf:about="">
        <dc:format>image/svg+xml</dc:format>
        <dc:type
           rdf:resource="http://purl.org/dc/dcmitype/StillImage" />
        <dc:title></dc:title>
      </cc:Work>
    </rdf:RDF>
  </metadata>
  <g
     inkscape:label="Ebene 1"
     inkscape:groupmode="layer"
     id="layer1"
     transform="translate(-25.926884,-53.018679)">
    <g
       id="g866"
       transform="matrix(0.33183051,0,0,0.33183051,16.8115,43.904954)">
      <path
         d="M 360.46,66.26 A 38.83,38.83 0 0 0 321.67,27.47 H 190.33 a 38.79,38.79 0 1 0 0,77.57 h 60.09 v 50 a 5.58,5.58 0 1 0 11.16,0 V 105 h 60.09 A 38.83,38.83 0 0 0 360.46,66.26 Z M 321.67,93.88 H 190.33 a 27.62,27.62 0 0 1 0,-55.24 h 131.34 a 27.62,27.62 0 1 1 0,55.24 z"
         id="path835"
         style="fill:#ffd966;fill-opacity:1" />
      <path
         d="m 334.93,218.76 a 5.58,5.58 0 0 0 -3.13,-5 l -73.35,-35.82 a 5.62,5.62 0 0 0 -4.9,0 l -73.35,35.8 a 5.58,5.58 0 0 0 0,10 l 73.35,35.82 a 5.55,5.55 0 0 0 4.9,0 l 73.35,-35.82 a 5.56,5.56 0 0 0 3.13,-4.98 z m -78.93,29.6 -60.63,-29.6 60.63,-29.61 60.63,29.61 z"
         id="path837"
         style="fill:#ffd966;fill-opacity:1" />
      <path
         d="m 33.06,484.53 h 124.06 a 5.59,5.59 0 0 0 5.59,-5.59 v -62 a 5.59,5.59 0 0 0 -5.59,-5.59 H 33.06 a 5.59,5.59 0 0 0 -5.59,5.59 v 62 a 5.59,5.59 0 0 0 5.59,5.59 z m 5.58,-62 h 112.9 v 50.84 H 38.64 Z"
         id="path839"
         style="fill:#ffd966;fill-opacity:1" />
      <path
         d="M 478.94,411.35 H 354.88 a 5.59,5.59 0 0 0 -5.59,5.59 v 62 a 5.59,5.59 0 0 0 5.59,5.59 h 124.06 a 5.59,5.59 0 0 0 5.59,-5.59 v -62 a 5.59,5.59 0 0 0 -5.59,-5.59 z m -5.58,62 h -112.9 v -50.83 h 112.9 z"
         id="path841"
         style="fill:#ffd966;fill-opacity:1" />
      <path
         d="M 478.94,280.83 H 354.88 a 5.58,5.58 0 0 0 -5.59,5.58 v 62 a 5.58,5.58 0 0 0 5.59,5.58 h 56.45 v 35 a 5.58,5.58 0 1 0 11.16,0 V 354 h 56.45 a 5.58,5.58 0 0 0 5.59,-5.58 v -62 a 5.58,5.58 0 0 0 -5.59,-5.59 z m -5.58,62 H 360.46 V 292 h 112.9 z"
         id="path843"
         style="fill:#ffd966;fill-opacity:1" />
      <path
         d="m 357.26,224.34 h 19.91 a 34.2,34.2 0 0 1 34.16,34.16 5.58,5.58 0 1 0 11.16,0 45.38,45.38 0 0 0 -45.32,-45.33 h -19.91 a 5.59,5.59 0 0 0 0,11.17 z"
         id="path845"
         style="fill:#ffd966;fill-opacity:1" />
      <path
         d="m 95.09,394.61 a 5.58,5.58 0 0 0 5.58,-5.59 V 258.5 a 34.2,34.2 0 0 1 34.16,-34.16 h 19.91 a 5.59,5.59 0 0 0 0,-11.17 H 134.83 A 45.38,45.38 0 0 0 89.51,258.5 V 389 a 5.58,5.58 0 0 0 5.58,5.61 z"
         id="path847"
         style="fill:#ffd966;fill-opacity:1" />
      <path
         d="M 327,442.36 H 185 a 5.58,5.58 0 1 0 0,11.16 h 142 a 5.58,5.58 0 1 0 0,-11.16 z"
         id="path849"
         style="fill:#ffd966;fill-opacity:1" />
    </g>
    <g
       id="g1095"
       transform="matrix(0.24091884,0,0,0.24091884,106.57048,152.1502)">
      <g
         id="g976">
	<defs
   id="defs971">
		<rect
   id="rect1050"
   width="96"
   height="96"
   x="0"
   y="0" />

	</defs>

	<clipPath
   id="SVGID_2_">
		<use
   xlink:href="#SVGID_1_"
   overflow="visible"
   id="use973"
   x="0"
   y="0"
   width="100%"
   height="100%" />

	</clipPath>

</g>
      <g
         id="g988">
	<defs
   id="defs979">
		<path
   id="path1056"
   d="M 2,48 C 2,73.406 22.594,94 48,94 73.405,94 94,73.406 94,48 94,22.595 73.405,2 48,2 22.594,2 2,22.595 2,48" />

	</defs>

	<clipPath
   id="SVGID_4_">
		<use
   xlink:href="#SVGID_3_"
   overflow="visible"
   id="use981"
   x="0"
   y="0"
   width="100%"
   height="100%" />

	</clipPath>

	
	
</g>
      <g
         id="g1000">
	<defs
   id="defs991">
		<path
   id="path1064"
   d="M 2,48 C 2,69.986 17.43,88.359 38.049,92.908 39.293,90.546 40,87.856 40,85 40,75.611 32.389,68 23,68 15.268,68 9,61.732 9,54 9,46.268 15.268,40 23,40 28.523,40 33,35.523 33,30 V 20 C 33,14.477 37.477,10 43,10 47.751,10 51.721,6.684 52.74,2.242 51.181,2.082 49.601,2 48,2 22.594,2 2,22.595 2,48" />

	</defs>

	<clipPath
   id="SVGID_6_">
		<use
   xlink:href="#SVGID_5_"
   overflow="visible"
   id="use993"
   x="0"
   y="0"
   width="100%"
   height="100%" />

	</clipPath>

	
	
</g>
      <g
         id="g1010">
	<defs
   id="defs1003">
		<rect
   id="rect1072"
   width="96"
   height="96"
   x="0"
   y="0" />

	</defs>

	<clipPath
   id="SVGID_8_">
		<use
   xlink:href="#SVGID_7_"
   overflow="visible"
   id="use1005"
   x="0"
   y="0"
   width="100%"
   height="100%" />

	</clipPath>

	<path
   clip-path="url(#SVGID_8_)"
   fill="#2d4d68"
   d="m 38.049,94.908 c -0.143,0 -0.287,-0.016 -0.431,-0.047 C 15.821,90.053 0,70.345 0,48 0,21.533 21.533,0 48,0 c 1.64,0 3.303,0.085 4.943,0.253 0.57,0.058 1.089,0.358 1.423,0.824 0.334,0.466 0.451,1.054 0.323,1.612 C 53.431,8.171 48.625,12 43,12 c -4.411,0 -8,3.589 -8,8 v 10 c 0,6.617 -5.383,12 -12,12 -6.617,0 -12,5.383 -12,12 0,6.617 5.383,12 12,12 10.477,0 19,8.523 19,19 0,3.074 -0.754,6.132 -2.182,8.841 -0.351,0.666 -1.039,1.067 -1.769,1.067 M 48,4 C 23.738,4 4,23.738 4,48 4,67.947 17.754,85.603 36.926,90.582 37.639,88.814 38,86.943 38,85 38,76.729 31.271,70 23,70 14.178,70 7,62.822 7,54 7,45.178 14.178,38 23,38 c 4.411,0 8,-3.589 8,-8 V 20 C 31,13.383 36.383,8 43,8 45.92,8 48.509,6.452 49.907,4.041 49.27,4.014 48.633,4 48,4"
   id="path1008"
   style="fill:#ffd966;fill-opacity:1" />

</g>
      <g
         id="g1022">
	<defs
   id="defs1013">
		<path
   id="path1079"
   d="M 84,19.999 C 81.571,21.824 80,24.728 80,28 v 10 c 0,5.523 -4.477,10 -10,10 -5.523,0 -10,4.477 -10,10 0,5.523 4.477,10 10,10 5.523,0 10,4.478 10,10 v 3 l 0.01,0.02 C 88.633,72.658 94,60.959 94,48 94,37.429 90.426,27.698 84.431,19.929 Z" />

	</defs>

	<clipPath
   id="SVGID_10_">
		<use
   xlink:href="#SVGID_9_"
   overflow="visible"
   id="use1015"
   x="0"
   y="0"
   width="100%"
   height="100%" />

	</clipPath>

	
	
</g>
      <g
         id="g1034">
	<defs
   id="defs1025">
		<rect
   id="rect1087"
   width="96"
   height="96"
   x="0"
   y="0" />

	</defs>

	<clipPath
   id="SVGID_12_">
		<use
   xlink:href="#SVGID_11_"
   overflow="visible"
   id="use1027"
   x="0"
   y="0"
   width="100%"
   height="100%" />

	</clipPath>

	<path
   clip-path="url(#SVGID_12_)"
   fill="#2d4d68"
   d="M 80.011,83.02 C 79.906,83.02 79.8,83.012 79.695,82.995 79.072,82.895 78.533,82.509 78.24,81.95 78.089,81.662 78,81.324 78,81 v -3 c 0,-4.411 -3.589,-8 -8,-8 -6.616,0 -12,-5.383 -12,-12 0,-6.617 5.384,-12 12,-12 4.411,0 8,-3.589 8,-8 V 28 c 0,-3.81 1.749,-7.309 4.799,-9.6 0.259,-0.193 0.56,-0.322 0.879,-0.374 l 0.432,-0.07 c 0.725,-0.12 1.456,0.171 1.905,0.752 C 92.547,27.174 96,37.304 96,48 96,61.091 90.815,73.327 81.402,82.455 81.026,82.82 80.525,83.02 80.011,83.02 M 83.997,22.708 C 82.713,24.154 82,26.014 82,28 v 10 c 0,6.617 -5.384,12 -12,12 -4.411,0 -8,3.589 -8,8 0,4.411 3.589,8 8,8 5.972,0 10.938,4.384 11.851,10.103 C 88.427,68.222 92,58.404 92,48 92,38.843 89.239,30.14 83.997,22.708"
   id="path1030"
   style="fill:#ffd966;fill-opacity:1" />

	<path
   clip-path="url(#SVGID_12_)"
   fill="#2d4d68"
   d="M 48,96 C 21.533,96 0,74.467 0,48 0,21.533 21.533,0 48,0 74.467,0 96,21.533 96,48 96,74.467 74.467,96 48,96 M 48,4 C 23.738,4 4,23.738 4,48 4,72.262 23.738,92 48,92 72.262,92 92,72.262 92,48 92,23.738 72.262,4 48,4"
   id="path1032"
   style="fill:#ffd966;fill-opacity:1" />

</g>
    </g>
    <g
       id="g948"
       transform="matrix(0.17626927,0,0,0.17626927,71.588209,166.11306)"
       style="fill:#ffd966;fill-opacity:1">
      <path
         d="M 64,113.5 C 91.3,113.5 113.5,91.3 113.5,64 113.5,36.7 91.3,14.5 64,14.5 36.7,14.5 14.5,36.7 14.5,64 c 0,27.3 22.2,49.5 49.5,49.5 z m 0,-95 c 25.1,0 45.5,20.4 45.5,45.5 0,25.1 -20.4,45.5 -45.5,45.5 C 38.9,109.5 18.5,89.1 18.5,64 18.5,38.9 38.9,18.5 64,18.5 Z"
         fill="#3ebbc4"
         id="path928"
         style="fill:#ffd966;fill-opacity:1" />
      <path
         d="M 108.4,116.4 V 101.6 L 105,105 c -17.9,17.9 -45,22.1 -67.5,10.6 l -1.8,3.6 c 9,4.6 18.7,6.9 28.3,6.9 14.6,0 28.9,-5.2 40.4,-15 v 5.4 h 4 z"
         fill="#3ebbc4"
         id="path930"
         style="fill:#ffd966;fill-opacity:1" />
      <path
         d="m 11.6,104.4 v 4 H 26.4 L 23,105 C 5.2,87.3 0.9,60.3 12.2,37.9 L 8.6,36.1 C -2.7,58.6 0.7,85.5 17,104.4 Z"
         fill="#3ebbc4"
         id="path932"
         style="fill:#ffd966;fill-opacity:1" />
      <path
         d="m 115.7,90.3 3.6,1.8 C 130.8,69.5 127.4,42.5 111,23.5 h 10.4 v -4 H 101.6 L 105,23 c 17.8,17.8 22.1,44.9 10.7,67.3 z"
         fill="#3ebbc4"
         id="path934"
         style="fill:#ffd966;fill-opacity:1" />
      <path
         d="M 90.3,12.3 92.1,8.7 C 69.5,-2.8 42.5,0.6 23.6,17 v -5.4 h -4 V 26.4 L 23,23 C 40.8,5.2 67.9,0.9 90.3,12.3 Z"
         fill="#3ebbc4"
         id="path936"
         style="fill:#ffd966;fill-opacity:1" />
      <rect
         fill="#3ebbc4"
         height="3.2"
         width="4"
         x="62"
         y="24.4"
         id="rect938"
         style="fill:#ffd966;fill-opacity:1" />
      <rect
         fill="#3ebbc4"
         height="4"
         width="3.2"
         x="100.4"
         y="62"
         id="rect940"
         style="fill:#ffd966;fill-opacity:1" />
      <rect
         fill="#3ebbc4"
         height="3.2"
         width="4"
         x="62"
         y="100.4"
         id="rect942"
         style="fill:#ffd966;fill-opacity:1" />
      <rect
         fill="#3ebbc4"
         height="4"
         width="3.2"
         x="24.4"
         y="62"
         id="rect944"
         style="fill:#ffd966;fill-opacity:1" />
      <polygon
         fill="#3ebbc4"
         points="66,71.9 66,66 84.6,66 84.6,62 66,62 66,33.5 62,33.5 62,62 56.1,62 56.1,66 62,66 62,71.9 "
         id="polygon946"
         style="fill:#ffd966;fill-opacity:1" />
    </g>
    <g
       id="g1101"
       transform="matrix(0.37850098,0.05043993,-0.05043993,0.37850098,71.690576,118.55766)"
       style="fill:#ffd966;fill-opacity:1">
      <path
         d="m 45.574,38.253 c -5.443,0 -9.871,4.428 -9.871,9.871 0,5.443 4.428,9.871 9.871,9.871 5.443,0 9.871,-4.428 9.871,-9.871 0,-5.443 -4.427,-9.871 -9.871,-9.871 z m 0,16.342 c -3.568,0 -6.471,-2.904 -6.471,-6.471 0,-3.568 2.902,-6.471 6.471,-6.471 3.566,0 6.471,2.902 6.471,6.471 0,3.566 -2.904,6.471 -6.471,6.471 z"
         id="path1097"
         style="fill:#ffd966;fill-opacity:1" />
      <path
         d="m 64.057,27.726 -6.975,4.029 C 56.111,31.069 55.078,30.474 53.996,29.974 V 21.913 H 37.152 v 8.061 c -1.008,0.467 -1.979,1.021 -2.898,1.654 l -6.936,-4.111 -8.586,14.488 6.936,4.109 c -0.078,0.709 -0.115,1.373 -0.115,2.01 0,0.574 0.029,1.158 0.092,1.785 l -6.98,4.031 8.422,14.584 6.979,-4.031 c 0.973,0.686 2.004,1.281 3.088,1.781 v 8.061 h 16.844 v -8.061 c 1.008,-0.467 1.977,-1.021 2.896,-1.654 l 6.936,4.111 8.586,-14.488 -6.934,-4.109 c 0.078,-0.705 0.115,-1.371 0.115,-2.01 0,-0.576 -0.029,-1.158 -0.092,-1.785 l 6.98,-4.031 z m -2.233,16.812 0.17,1.143 c 0.137,0.928 0.203,1.703 0.203,2.443 0,0.797 -0.076,1.656 -0.232,2.631 l -0.182,1.141 5.973,3.539 -5.119,8.639 -5.973,-3.541 -0.914,0.713 C 54.506,62.215 53.133,63 51.672,63.576 L 50.596,64 v 6.936 H 40.551 v -6.934 l -1.074,-0.426 c -1.533,-0.605 -2.955,-1.428 -4.23,-2.443 l -0.906,-0.723 -6.01,3.471 -5.021,-8.695 6.016,-3.475 -0.17,-1.143 c -0.137,-0.928 -0.203,-1.703 -0.203,-2.443 0,-0.801 0.074,-1.639 0.232,-2.635 l 0.178,-1.139 -5.971,-3.537 5.119,-8.639 5.973,3.543 0.914,-0.713 c 1.248,-0.971 2.621,-1.756 4.08,-2.332 l 1.074,-0.424 v -6.936 h 10.045 v 6.934 l 1.076,0.426 c 1.529,0.605 2.953,1.428 4.229,2.443 l 0.908,0.723 6.008,-3.469 5.023,8.693 z"
         id="path1099"
         style="fill:#ffd966;fill-opacity:1" />
    </g>
    <path
       d="M 109.02908,156.56279 94.977204,144.45605 a 0.72187053,0.73861512 0 1 0 -0.929921,1.12998 l 14.051877,12.10674 a 0.72187048,0.73861508 0 1 0 0.92992,-1.12998 z"
       id="path849-0"
       style="fill:#ffd966;fill-opacity:1;stroke-width:0.130858" />
    <path
       d="M 84.801927,166.3729 86.3305,148.51442 a 0.70107136,0.73475492 76.15419 1 0 -1.460803,-0.0846 l -1.528567,17.85849 a 0.70107132,0.73475489 76.154178 1 0 1.460797,0.0846 z"
       id="path849-0-1"
       style="fill:#ffd966;fill-opacity:1;stroke-width:0.128622" />
    <path
       d="m 107.64229,167.65753 -14.493317,5.52544 a 0.6175503,0.60270004 25.96085 1 0 0.462731,1.13062 l 14.493316,-5.52545 a 0.61755019,0.60269992 25.960852 1 0 -0.46273,-1.13061 z"
       id="path849-0-2"
       style="fill:#ffd966;fill-opacity:1;stroke-width:0.109332" />
    <path
       d="m 117.57915,126.93843 4.59068,4.7513 a 11.348604,11.348604 0 0 1 -0.27557,16.02821 1.851615,1.851615 0 1 0 2.57317,2.6632 15.058469,15.058469 0 0 0 0.36799,-21.2669 l -4.59067,-4.75129 a 1.8549326,1.8549326 0 0 0 -2.6656,2.57548 z"
       id="path845-4"
       style="fill:#ffd966;fill-opacity:1;stroke-width:0.33183" />
    <path
       d="m 61.363204,175.03968 0.278344,-10.081 a 10.255206,17.335293 0 0 1 10.709631,-16.48894 1.673218,2.8283902 0 1 0 0.156017,-5.65061 13.607638,23.00221 0 0 0 -14.211443,21.87557 l -0.278343,10.08101 a 1.6762164,2.8334587 0 0 0 3.345794,0.26397 z"
       id="path845-3"
       style="fill:#ffd966;fill-opacity:1;stroke-width:0.389862" />
  </g>
</svg>
