<?xml version="1.0" encoding="UTF-8" standalone="no"?>
<!-- Created with Inkscape (http://www.inkscape.org/) -->

<svg
   xmlns:dc="http://purl.org/dc/elements/1.1/"
   xmlns:cc="http://creativecommons.org/ns#"
   xmlns:rdf="http://www.w3.org/1999/02/22-rdf-syntax-ns#"
   xmlns:svg="http://www.w3.org/2000/svg"
   xmlns="http://www.w3.org/2000/svg"
   xmlns:sodipodi="http://sodipodi.sourceforge.net/DTD/sodipodi-0.dtd"
   xmlns:inkscape="http://www.inkscape.org/namespaces/inkscape"
   width="200mm"
   height="199.9958mm"
   viewBox="0 0 200 199.9958"
   version="1.1"
   id="svg8"
   inkscape:version="0.92.1 r15371"
   sodipodi:docname="linkedpipes.svg"
   inkscape:export-filename="D:\src\LinkedPipes\logo\linkedpipes.png"
   inkscape:export-xdpi="127.00266"
   inkscape:export-ydpi="127.00266">
  <defs
     id="defs2" />
  <sodipodi:namedview
     id="base"
     pagecolor="#ffffff"
     bordercolor="#666666"
     borderopacity="1.0"
     inkscape:pageopacity="0.0"
     inkscape:pageshadow="2"
     inkscape:zoom="0.7"
     inkscape:cx="552.89912"
     inkscape:cy="219.02619"
     inkscape:document-units="mm"
     inkscape:current-layer="layer1"
     showgrid="false"
     showguides="true"
     fit-margin-top="0"
     fit-margin-left="0"
     fit-margin-right="0"
     fit-margin-bottom="0"
     inkscape:window-width="1920"
     inkscape:window-height="1018"
     inkscape:window-x="-8"
     inkscape:window-y="-8"
     inkscape:window-maximized="1" />
  <metadata
     id="metadata5">
    <rdf:RDF>
      <cc:Work
         rdf:about="">
        <dc:format>image/svg+xml</dc:format>
        <dc:type
           rdf:resource="http://purl.org/dc/dcmitype/StillImage" />
        <dc:title></dc:title>
      </cc:Work>
    </rdf:RDF>
  </metadata>
  <g
     inkscape:label="Ebene 1"
     inkscape:groupmode="layer"
     id="layer1"
     transform="translate(-4.9999949,-48.5021)">
    <g
       id="g4608"
       transform="matrix(2.3835413,0,0,2.3835413,-702.9404,-555.08683)"
       style="fill:#c837ab">
      <g
         id="g4489"
         style="fill:#c837ab">
        <path
           id="path4487"
           d="m 338.938,337.139 c -10e-4,0 -10e-4,0 -0.002,0 -5.57,0 -11.021,-1.103 -16.201,-3.272 -21.328,-8.945 -31.403,-33.572 -22.46,-54.901 6.556,-15.633 21.745,-25.734 38.697,-25.734 5.57,0 11.022,1.102 16.202,3.273 10.332,4.333 18.358,12.43 22.602,22.799 4.241,10.369 4.191,21.77 -0.141,32.102 -6.556,15.631 -21.746,25.733 -38.697,25.733 z m 0.033,-82.339 c -16.317,0 -30.939,9.724 -37.25,24.771 -8.608,20.53 1.09,44.237 21.62,52.847 4.986,2.092 10.233,3.151 15.595,3.151 16.319,10e-4 30.94,-9.723 37.252,-24.772 4.171,-9.943 4.219,-20.917 0.135,-30.899 -4.083,-9.981 -11.811,-17.775 -21.755,-21.945 -4.988,-2.093 -10.235,-3.153 -15.597,-3.153 z"
           inkscape:connector-curvature="0"
           style="fill:#c837ab" />
      </g>
      <rect
         id="rect4491"
         height="7.3930001"
         width="0.78500003"
         transform="matrix(-0.9247,-0.3808,0.3808,-0.9247,499.6049,758.3999)"
         y="326.077"
         x="324.439"
         style="fill:#c837ab" />
      <rect
         id="rect4493"
         height="7.395"
         width="0.78399998"
         transform="matrix(-0.9251,-0.3797,0.3797,-0.9251,581.0969,635.817)"
         y="256.897"
         x="352.86801"
         style="fill:#c837ab" />
      <rect
         id="rect4495"
         height="0.78299999"
         width="7.395"
         transform="matrix(-0.9248,-0.3803,0.3803,-0.9248,601.4594,737.5891)"
         y="308.98001"
         x="369.905"
         style="fill:#c837ab" />
      <rect
         id="rect4497"
         height="0.78399998"
         width="7.3940001"
         transform="matrix(-0.9249,-0.3802,0.3802,-0.9249,479.2278,656.5852)"
         y="280.569"
         x="300.76599"
         style="fill:#c837ab" />
      <path
         id="path4499"
         d="m 326.038,326.777 -18.604,-44.581 44.583,-18.604 18.604,44.582 -0.362,0.15 z m -17.579,-44.159 18,43.133 43.136,-18 -18,-43.133 z"
         inkscape:connector-curvature="0"
         style="fill:#c837ab" />
      <rect
         id="rect4501"
         height="15.128"
         width="0.78399998"
         y="253.95399"
         x="338.57401"
         style="fill:#c837ab" />
      <rect
         id="rect4503"
         height="0.78399998"
         width="15.643"
         transform="matrix(-0.7027,-0.7115,0.7115,-0.7027,343.8446,687.2751)"
         y="271.40701"
         x="307.69"
         style="fill:#c837ab" />
      <rect
         id="rect4505"
         height="14.922"
         width="0.78399998"
         transform="matrix(-0.7099,-0.7043,0.7043,-0.7099,429.0273,719.6249)"
         y="263.995"
         x="362.32599"
         style="fill:#c837ab" />
      <g
         id="g4509"
         style="fill:#c837ab">
        <rect
           id="rect4507"
           height="0.78399998"
           width="14.898"
           y="294.80701"
           x="298.091"
           style="fill:#c837ab" />
      </g>
      <path
         id="path4511"
         d="m 352.181,326.71 -0.361,-0.149 -44.316,-18.222 18.37,-44.68 0.362,0.149 44.316,18.221 z m -43.655,-18.798 43.229,17.774 17.774,-43.23 -43.229,-17.774 z"
         inkscape:connector-curvature="0"
         style="fill:#c837ab" />
      <rect
         id="rect4513"
         height="0.78399998"
         width="7.395"
         transform="matrix(-0.3852,-0.9228,0.9228,-0.3852,185.2949,782.8775)"
         y="329.32501"
         x="349.72501"
         style="fill:#c837ab" />
      <rect
         id="rect4515"
         height="0.78399998"
         width="7.395"
         transform="matrix(-0.3851,-0.9229,0.9229,-0.3851,209.041,660.6661)"
         y="260.29901"
         x="320.92499"
         style="fill:#c837ab" />
      <rect
         id="rect4517"
         height="7.3959999"
         width="0.78399998"
         transform="matrix(-0.3849,-0.923,0.923,-0.3849,258.1158,733.6354)"
         y="277.108"
         x="373.13501"
         style="fill:#c837ab" />
      <rect
         id="rect4519"
         height="7.395"
         width="0.78299999"
         transform="matrix(-0.3853,-0.9228,0.9228,-0.3853,136.1727,709.8675)"
         y="305.883"
         x="304.121"
         style="fill:#c837ab" />
      <rect
         id="rect4521"
         height="15.845"
         width="0.78399998"
         y="320.54999"
         x="338.66699"
         style="fill:#c837ab" />
      <rect
         id="rect4523"
         height="0.78399998"
         width="15.642"
         transform="matrix(-0.7027,-0.7115,0.7115,-0.7027,390.6287,800.3891)"
         y="318.18701"
         x="354.72101"
         style="fill:#c837ab" />
      <rect
         id="rect4525"
         height="15.02"
         width="0.78399998"
         transform="matrix(-0.6996,-0.7145,0.7145,-0.6996,308.1956,767.5495)"
         y="311.48001"
         x="315.04999"
         style="fill:#c837ab" />
      <rect
         id="rect4527"
         height="0.78399998"
         width="14.897"
         y="294.80701"
         x="365.133"
         style="fill:#c837ab" />
      <rect
         id="rect4529"
         height="16.474001"
         width="0.78399998"
         transform="matrix(-0.9917,-0.1283,0.1283,-0.9917,580.1076,586.1473)"
         y="266.14801"
         x="308.54501"
         style="fill:#c837ab" />
      <g
         id="g4535"
         style="fill:#c837ab">
        <rect
           id="rect4531"
           height="15.98"
           width="0.78399998"
           transform="matrix(-0.7949,-0.6068,0.6068,-0.7949,368.5807,702.4799)"
           y="280.95099"
           x="302.634"
           style="fill:#c837ab" />
        <rect
           id="rect4533"
           height="0.78399998"
           width="16.153999"
           transform="matrix(-0.6034,-0.7974,0.7974,-0.6034,245.3459,725.4194)"
           y="301.31201"
           x="294.97501"
           style="fill:#c837ab" />
      </g>
      <rect
         id="rect4537"
         height="0.78399998"
         width="16.198"
         transform="matrix(-0.1319,-0.9913,0.9913,-0.1319,36.3163,664.1895)"
         y="315.80099"
         x="300.888"
         style="fill:#c837ab" />
      <rect
         id="rect4539"
         height="0.78500003"
         width="15.893"
         transform="matrix(-0.9929,-0.1189,0.1189,-0.9929,595.0048,685.8148)"
         y="324.76599"
         x="310.01401"
         style="fill:#c837ab" />
      <rect
         id="rect4541"
         height="0.78399998"
         width="16.714001"
         transform="matrix(-0.7977,-0.6031,0.6031,-0.7977,398.0732,795.7898)"
         y="330.728"
         x="324.16901"
         style="fill:#c837ab" />
      <rect
         id="rect4543"
         height="16.198"
         width="0.78500003"
         transform="matrix(-0.6105,-0.792,0.792,-0.6105,294.2042,807.1806)"
         y="323.14801"
         x="345.19101"
         style="fill:#c837ab" />
      <rect
         id="rect4545"
         height="16.153"
         width="0.78299999"
         transform="matrix(-0.1421,-0.9898,0.9898,-0.1421,89.3664,727.655)"
         y="317.02499"
         x="359.61301"
         style="fill:#c837ab" />
      <rect
         id="rect4547"
         height="15.741"
         width="0.78399998"
         transform="matrix(-0.9922,-0.1245,0.1245,-0.9922,695.6871,675.7979)"
         y="308.29199"
         x="368.56699"
         style="fill:#c837ab" />
      <rect
         id="rect4549"
         height="16.198999"
         width="0.78399998"
         transform="matrix(-0.8092,-0.5876,0.5876,-0.8092,500.5359,766.1768)"
         y="293.707"
         x="374.29501"
         style="fill:#c837ab" />
      <rect
         id="rect4551"
         height="0.78399998"
         width="16.052"
         transform="matrix(-0.5827,-0.8127,0.8127,-0.5827,358.5103,761.5656)"
         y="288.34601"
         x="366.755"
         style="fill:#c837ab" />
      <rect
         id="rect4553"
         height="0.78399998"
         width="16.198999"
         transform="matrix(-0.1319,-0.9913,0.9913,-0.1319,145.9075,676.1527)"
         y="273.79501"
         x="360.923"
         style="fill:#c837ab" />
      <rect
         id="rect4555"
         height="0.78399998"
         width="15.98"
         transform="matrix(-0.9917,-0.1283,0.1283,-0.9917,683.1071,574.2325)"
         y="264.72699"
         x="352.05499"
         style="fill:#c837ab" />
      <rect
         id="rect4557"
         height="0.78399998"
         width="16.563"
         transform="matrix(-0.8009,-0.5988,0.5988,-0.8009,467.0838,673.5804)"
         y="258.74701"
         x="337.241"
         style="fill:#c837ab" />
      <rect
         id="rect4559"
         height="16.082001"
         width="0.78399998"
         transform="matrix(-0.6229,-0.7823,0.7823,-0.6229,336.9824,680.8411)"
         y="251.15601"
         x="332.203"
         style="fill:#c837ab" />
      <rect
         id="rect4561"
         height="16.42"
         width="0.78399998"
         transform="matrix(-0.1233,-0.9924,0.9924,-0.1233,94.1501,613.6553)"
         y="257.02802"
         x="317.75601"
         style="fill:#c837ab" />
    </g>
    <text
       xml:space="preserve"
       style="font-style:normal;font-weight:normal;font-size:109.24501038px;line-height:1.25;font-family:sans-serif;letter-spacing:0px;word-spacing:0px;fill:#000000;fill-opacity:1;stroke:none;stroke-width:2.73112512"
       x="59.882362"
       y="187.76488"
       id="text4648"><tspan
         sodipodi:role="line"
         id="tspan4646"
         x="59.882362"
         y="187.76488"
         style="font-style:normal;font-variant:normal;font-weight:normal;font-stretch:normal;font-family:'Roboto Condensed';-inkscape-font-specification:'Roboto Condensed, ';fill:#c837ab;fill-opacity:1;stroke-width:2.73112512">L</tspan></text>
    <text
       xml:space="preserve"
       style="font-style:normal;font-weight:normal;font-size:109.24501038px;line-height:1.25;font-family:sans-serif;letter-spacing:0px;word-spacing:0px;fill:#000000;fill-opacity:1;stroke:none;stroke-width:2.73112512"
       x="90.448631"
       y="187.8177"
       id="text4648-6"><tspan
         sodipodi:role="line"
         id="tspan4646-2"
         x="90.448631"
         y="187.8177"
         style="font-style:normal;font-variant:normal;font-weight:normal;font-stretch:normal;font-family:'Roboto Condensed';-inkscape-font-specification:'Roboto Condensed, ';fill:#c837ab;fill-opacity:1;stroke-width:2.73112512">P</tspan></text>
  </g>
</svg>
