<?xml version="1.0" encoding="UTF-8" standalone="no"?>
<!-- Created with Inkscape (http://www.inkscape.org/) -->

<svg
   xmlns:dc="http://purl.org/dc/elements/1.1/"
   xmlns:cc="http://creativecommons.org/ns#"
   xmlns:rdf="http://www.w3.org/1999/02/22-rdf-syntax-ns#"
   xmlns:svg="http://www.w3.org/2000/svg"
   xmlns="http://www.w3.org/2000/svg"
   xmlns:sodipodi="http://sodipodi.sourceforge.net/DTD/sodipodi-0.dtd"
   xmlns:inkscape="http://www.inkscape.org/namespaces/inkscape"
   width="200mm"
   height="199.9958mm"
   viewBox="0 0 200 199.9958"
   version="1.1"
   id="svg8"
   inkscape:version="0.92.1 r15371"
   sodipodi:docname="linkedpipes2.svg"
   inkscape:export-filename="D:\src\LinkedPipes\logo\linkedpipes.png"
   inkscape:export-xdpi="254.00533"
   inkscape:export-ydpi="254.00533">
  <defs
     id="defs2" />
  <sodipodi:namedview
     id="base"
     pagecolor="#ffffff"
     bordercolor="#666666"
     borderopacity="1.0"
     inkscape:pageopacity="0.0"
     inkscape:pageshadow="2"
     inkscape:zoom="0.7"
     inkscape:cx="339.15173"
     inkscape:cy="381.84508"
     inkscape:document-units="mm"
     inkscape:current-layer="g4570"
     showgrid="false"
     showguides="true"
     fit-margin-top="0"
     fit-margin-left="0"
     fit-margin-right="0"
     fit-margin-bottom="0"
     inkscape:window-width="1920"
     inkscape:window-height="1027"
     inkscape:window-x="-8"
     inkscape:window-y="-8"
     inkscape:window-maximized="1" />
  <metadata
     id="metadata5">
    <rdf:RDF>
      <cc:Work
         rdf:about="">
        <dc:format>image/svg+xml</dc:format>
        <dc:type
           rdf:resource="http://purl.org/dc/dcmitype/StillImage" />
        <dc:title></dc:title>
      </cc:Work>
    </rdf:RDF>
  </metadata>
  <g
     inkscape:label="Ebene 1"
     inkscape:groupmode="layer"
     id="layer1"
     transform="translate(-4.9999949,-48.5021)">
    <g
       id="g4608"
       transform="matrix(2.3835413,0,0,2.3835413,-702.9404,-555.08683)"
       style="fill:#892a69;fill-opacity:1">
      <g
         id="g4489"
         style="fill:#892a69;fill-opacity:1">
        <path
           id="path4487"
           d="m 338.938,337.139 c -10e-4,0 -10e-4,0 -0.002,0 -5.57,0 -11.021,-1.103 -16.201,-3.272 -21.328,-8.945 -31.403,-33.572 -22.46,-54.901 6.556,-15.633 21.745,-25.734 38.697,-25.734 5.57,0 11.022,1.102 16.202,3.273 10.332,4.333 18.358,12.43 22.602,22.799 4.241,10.369 4.191,21.77 -0.141,32.102 -6.556,15.631 -21.746,25.733 -38.697,25.733 z m 0.033,-82.339 c -16.317,0 -30.939,9.724 -37.25,24.771 -8.608,20.53 1.09,44.237 21.62,52.847 4.986,2.092 10.233,3.151 15.595,3.151 16.319,10e-4 30.94,-9.723 37.252,-24.772 4.171,-9.943 4.219,-20.917 0.135,-30.899 -4.083,-9.981 -11.811,-17.775 -21.755,-21.945 -4.988,-2.093 -10.235,-3.153 -15.597,-3.153 z"
           inkscape:connector-curvature="0"
           style="fill:#892a69;fill-opacity:1" />
      </g>
      <rect
         id="rect4491"
         height="7.3930001"
         width="0.78500003"
         transform="matrix(-0.9247,-0.3808,0.3808,-0.9247,499.6049,758.3999)"
         y="326.077"
         x="324.439"
         style="fill:#892a69;fill-opacity:1" />
      <rect
         id="rect4493"
         height="7.395"
         width="0.78399998"
         transform="matrix(-0.9251,-0.3797,0.3797,-0.9251,581.0969,635.817)"
         y="256.897"
         x="352.86801"
         style="fill:#892a69;fill-opacity:1" />
      <rect
         id="rect4495"
         height="0.78299999"
         width="7.395"
         transform="matrix(-0.9248,-0.3803,0.3803,-0.9248,601.4594,737.5891)"
         y="308.98001"
         x="369.905"
         style="fill:#892a69;fill-opacity:1" />
      <rect
         id="rect4497"
         height="0.78399998"
         width="7.3940001"
         transform="matrix(-0.9249,-0.3802,0.3802,-0.9249,479.2278,656.5852)"
         y="280.569"
         x="300.76599"
         style="fill:#892a69;fill-opacity:1" />
      <path
         id="path4499"
         d="m 326.038,326.777 -18.604,-44.581 44.583,-18.604 18.604,44.582 -0.362,0.15 z m -17.579,-44.159 18,43.133 43.136,-18 -18,-43.133 z"
         inkscape:connector-curvature="0"
         style="fill:#892a69;fill-opacity:1" />
      <rect
         id="rect4501"
         height="15.128"
         width="0.78399998"
         y="253.95399"
         x="338.57401"
         style="fill:#892a69;fill-opacity:1" />
      <rect
         id="rect4503"
         height="0.78399998"
         width="15.643"
         transform="matrix(-0.7027,-0.7115,0.7115,-0.7027,343.8446,687.2751)"
         y="271.40701"
         x="307.69"
         style="fill:#892a69;fill-opacity:1" />
      <rect
         id="rect4505"
         height="14.922"
         width="0.78399998"
         transform="matrix(-0.7099,-0.7043,0.7043,-0.7099,429.0273,719.6249)"
         y="263.995"
         x="362.32599"
         style="fill:#892a69;fill-opacity:1" />
      <g
         id="g4509"
         style="fill:#892a69;fill-opacity:1">
        <rect
           id="rect4507"
           height="0.78399998"
           width="14.898"
           y="294.80701"
           x="298.091"
           style="fill:#892a69;fill-opacity:1" />
      </g>
      <path
         id="path4511"
         d="m 352.181,326.71 -0.361,-0.149 -44.316,-18.222 18.37,-44.68 0.362,0.149 44.316,18.221 z m -43.655,-18.798 43.229,17.774 17.774,-43.23 -43.229,-17.774 z"
         inkscape:connector-curvature="0"
         style="fill:#892a69;fill-opacity:1" />
      <rect
         id="rect4513"
         height="0.78399998"
         width="7.395"
         transform="matrix(-0.3852,-0.9228,0.9228,-0.3852,185.2949,782.8775)"
         y="329.32501"
         x="349.72501"
         style="fill:#892a69;fill-opacity:1" />
      <rect
         id="rect4515"
         height="0.78399998"
         width="7.395"
         transform="matrix(-0.3851,-0.9229,0.9229,-0.3851,209.041,660.6661)"
         y="260.29901"
         x="320.92499"
         style="fill:#892a69;fill-opacity:1" />
      <rect
         id="rect4517"
         height="7.3959999"
         width="0.78399998"
         transform="matrix(-0.3849,-0.923,0.923,-0.3849,258.1158,733.6354)"
         y="277.108"
         x="373.13501"
         style="fill:#892a69;fill-opacity:1" />
      <rect
         id="rect4519"
         height="7.395"
         width="0.78299999"
         transform="matrix(-0.3853,-0.9228,0.9228,-0.3853,136.1727,709.8675)"
         y="305.883"
         x="304.121"
         style="fill:#892a69;fill-opacity:1" />
      <rect
         id="rect4521"
         height="15.845"
         width="0.78399998"
         y="320.54999"
         x="338.66699"
         style="fill:#892a69;fill-opacity:1" />
      <rect
         id="rect4523"
         height="0.78399998"
         width="15.642"
         transform="matrix(-0.7027,-0.7115,0.7115,-0.7027,390.6287,800.3891)"
         y="318.18701"
         x="354.72101"
         style="fill:#892a69;fill-opacity:1" />
      <rect
         id="rect4525"
         height="15.02"
         width="0.78399998"
         transform="matrix(-0.6996,-0.7145,0.7145,-0.6996,308.1956,767.5495)"
         y="311.48001"
         x="315.04999"
         style="fill:#892a69;fill-opacity:1" />
      <rect
         id="rect4527"
         height="0.78399998"
         width="14.897"
         y="294.80701"
         x="365.133"
         style="fill:#892a69;fill-opacity:1" />
      <rect
         id="rect4529"
         height="16.474001"
         width="0.78399998"
         transform="matrix(-0.9917,-0.1283,0.1283,-0.9917,580.1076,586.1473)"
         y="266.14801"
         x="308.54501"
         style="fill:#892a69;fill-opacity:1" />
      <g
         id="g4535"
         style="fill:#892a69;fill-opacity:1">
        <rect
           id="rect4531"
           height="15.98"
           width="0.78399998"
           transform="matrix(-0.7949,-0.6068,0.6068,-0.7949,368.5807,702.4799)"
           y="280.95099"
           x="302.634"
           style="fill:#892a69;fill-opacity:1" />
        <rect
           id="rect4533"
           height="0.78399998"
           width="16.153999"
           transform="matrix(-0.6034,-0.7974,0.7974,-0.6034,245.3459,725.4194)"
           y="301.31201"
           x="294.97501"
           style="fill:#892a69;fill-opacity:1" />
      </g>
      <rect
         id="rect4537"
         height="0.78399998"
         width="16.198"
         transform="matrix(-0.1319,-0.9913,0.9913,-0.1319,36.3163,664.1895)"
         y="315.80099"
         x="300.888"
         style="fill:#892a69;fill-opacity:1" />
      <rect
         id="rect4539"
         height="0.78500003"
         width="15.893"
         transform="matrix(-0.9929,-0.1189,0.1189,-0.9929,595.0048,685.8148)"
         y="324.76599"
         x="310.01401"
         style="fill:#892a69;fill-opacity:1" />
      <rect
         id="rect4541"
         height="0.78399998"
         width="16.714001"
         transform="matrix(-0.7977,-0.6031,0.6031,-0.7977,398.0732,795.7898)"
         y="330.728"
         x="324.16901"
         style="fill:#892a69;fill-opacity:1" />
      <rect
         id="rect4543"
         height="16.198"
         width="0.78500003"
         transform="matrix(-0.6105,-0.792,0.792,-0.6105,294.2042,807.1806)"
         y="323.14801"
         x="345.19101"
         style="fill:#892a69;fill-opacity:1" />
      <rect
         id="rect4545"
         height="16.153"
         width="0.78299999"
         transform="matrix(-0.1421,-0.9898,0.9898,-0.1421,89.3664,727.655)"
         y="317.02499"
         x="359.61301"
         style="fill:#892a69;fill-opacity:1" />
      <rect
         id="rect4547"
         height="15.741"
         width="0.78399998"
         transform="matrix(-0.9922,-0.1245,0.1245,-0.9922,695.6871,675.7979)"
         y="308.29199"
         x="368.56699"
         style="fill:#892a69;fill-opacity:1" />
      <rect
         id="rect4549"
         height="16.198999"
         width="0.78399998"
         transform="matrix(-0.8092,-0.5876,0.5876,-0.8092,500.5359,766.1768)"
         y="293.707"
         x="374.29501"
         style="fill:#892a69;fill-opacity:1" />
      <rect
         id="rect4551"
         height="0.78399998"
         width="16.052"
         transform="matrix(-0.5827,-0.8127,0.8127,-0.5827,358.5103,761.5656)"
         y="288.34601"
         x="366.755"
         style="fill:#892a69;fill-opacity:1" />
      <rect
         id="rect4553"
         height="0.78399998"
         width="16.198999"
         transform="matrix(-0.1319,-0.9913,0.9913,-0.1319,145.9075,676.1527)"
         y="273.79501"
         x="360.923"
         style="fill:#892a69;fill-opacity:1" />
      <rect
         id="rect4555"
         height="0.78399998"
         width="15.98"
         transform="matrix(-0.9917,-0.1283,0.1283,-0.9917,683.1071,574.2325)"
         y="264.72699"
         x="352.05499"
         style="fill:#892a69;fill-opacity:1" />
      <rect
         id="rect4557"
         height="0.78399998"
         width="16.563"
         transform="matrix(-0.8009,-0.5988,0.5988,-0.8009,467.0838,673.5804)"
         y="258.74701"
         x="337.241"
         style="fill:#892a69;fill-opacity:1" />
      <rect
         id="rect4559"
         height="16.082001"
         width="0.78399998"
         transform="matrix(-0.6229,-0.7823,0.7823,-0.6229,336.9824,680.8411)"
         y="251.15601"
         x="332.203"
         style="fill:#892a69;fill-opacity:1" />
      <rect
         id="rect4561"
         height="16.42"
         width="0.78399998"
         transform="matrix(-0.1233,-0.9924,0.9924,-0.1233,94.1501,613.6553)"
         y="257.02802"
         x="317.75601"
         style="fill:#892a69;fill-opacity:1" />
    </g>
    <g
       id="g4570"
       transform="matrix(0.09553884,0.03270106,-0.03270106,0.09553884,86.420625,93.19762)"
       style="clip-rule:evenodd;fill-rule:evenodd">
      <g
         id="g4554"
         style="fill:#c94fa0;fill-opacity:1">
        <path
           id="path4526"
           d="m 306.93,807.35 c -6.239,-16.653 -4.765,-32.145 0.313,-49.712 5.084,-17.586 1.869,-37.575 2.294,-56.492 0.74,10.12 1.514,20.217 2.21,30.32 0.763,11.145 -0.119,21.34 9.583,31.364 12.56,12.97 3.7,35.98 -14.39,44.52 z"
           inkscape:connector-curvature="0"
           style="fill:#c94fa0;fill-opacity:1" />
        <path
           id="path4528"
           d="m 645.11,758.02 c -2.586,-5.218 -8.043,-10.979 -7.182,-15.549 1.995,-10.571 7.527,-20.426 10.683,-30.857 1.938,-6.413 2.138,-13.357 3.128,-20.06 4.448,11.523 11.032,22.729 12.782,34.644 2.1,14.31 -8.97,23.56 -19.41,31.83 z"
           inkscape:connector-curvature="0"
           style="fill:#c94fa0;fill-opacity:1" />
        <path
           id="path4530"
           d="m 612.65,822.73 c -6.975,-17.722 6.991,-41.96 27.215,-47.226 6.39,25.25 1.64,33.48 -27.21,47.23 z"
           inkscape:connector-curvature="0"
           style="fill:#c94fa0;fill-opacity:1" />
        <path
           id="path4532"
           d="m 282.23,872.32 c -7.282,-19.941 3.493,-45.138 21.359,-49.95 8.847,17.438 5.725,31.061 -9.82,42.323 -3.73,2.7 -7.69,5.1 -11.54,7.63 z"
           inkscape:connector-curvature="0"
           style="fill:#c94fa0;fill-opacity:1" />
        <path
           id="path4534"
           d="m 411.21,775.55 c 16.732,-0.895 36.253,12.547 39.739,28.297 0.645,2.927 -2.71,6.738 -4.215,10.14 -24.3,-1.31 -31.67,-18.26 -35.53,-38.44 z"
           inkscape:connector-curvature="0"
           style="fill:#c94fa0;fill-opacity:1" />
        <path
           id="path4536"
           d="m 468.84,831.21 c 2.146,-1.921 4.08,-5.161 6.473,-5.546 14.315,-2.284 35.048,10.419 41.129,24.608 -23.84,9.35 -37.4,3.92 -47.6,-19.06 z"
           inkscape:connector-curvature="0"
           style="fill:#c94fa0;fill-opacity:1" />
        <path
           id="path4538"
           d="m 219.84,909.08 c 3.586,-13.624 25.586,-29.349 38.692,-26.882 2.549,0.478 4.383,4.76 6.548,7.291 -7,21.16 -23.34,28.24 -45.24,19.59 z"
           inkscape:connector-curvature="0"
           style="fill:#c94fa0;fill-opacity:1" />
        <path
           id="path4540"
           d="m 542.11,853.11 c 0.402,-4.299 -0.389,-11.693 1.404,-12.387 10.48,-4.049 21.446,-7.523 32.534,-8.905 3.178,-0.401 7.299,6.775 10.988,10.48 -11.4,18.39 -28.12,14.75 -44.92,10.81 z"
           inkscape:connector-curvature="0"
           style="fill:#c94fa0;fill-opacity:1" />
        <path
           id="path4542"
           d="m 143.96,893.03 c 13.752,-6.381 34.455,-4.451 43.606,5.338 2.465,2.638 1.406,8.57 1.964,12.994 -23.56,6.9 -37.14,1.44 -45.57,-18.33 z"
           inkscape:connector-curvature="0"
           style="fill:#c94fa0;fill-opacity:1" />
        <path
           id="path4544"
           d="m 542.48,656.73 c 18.619,-1.617 37.246,-3.18 55.854,-4.886 7.271,-0.666 14.512,-1.666 21.761,-2.508 -10.024,15.466 -20.65,18.893 -37.591,14.493 -13.06,-3.39 -26.66,-4.8 -40.02,-7.09 z"
           inkscape:connector-curvature="0"
           style="fill:#c94fa0;fill-opacity:1" />
        <path
           id="path4546"
           d="m 709.78,600.9 c 7.504,-14.797 15.004,-29.597 22.508,-44.396 10.025,10.143 10.725,21.811 -0.207,32.021 -6.03,5.64 -14.78,8.36 -22.3,12.38 z"
           inkscape:connector-curvature="0"
           style="fill:#c94fa0;fill-opacity:1" />
        <path
           id="path4548"
           d="m 643.21,642.55 c 16.023,-8.045 32.046,-16.087 48.061,-24.122 -3.16,25.1 -17.95,32.53 -48.06,24.12 z"
           inkscape:connector-curvature="0"
           style="fill:#c94fa0;fill-opacity:1" />
        <path
           id="path4550"
           d="m 715.01,427.72 c -6.37,-13.953 -12.739,-27.902 -19.107,-41.854 14.074,3.541 21.784,13.581 21.132,28.076 -0.2,4.61 -1.32,9.18 -2.02,13.77 z"
           inkscape:connector-curvature="0"
           style="fill:#c94fa0;fill-opacity:1" />
        <path
           id="path4552"
           d="m 209.16,754.94 c 9.614,16.412 5,30.09 -13.581,40.308 4.53,-13.44 9.06,-26.87 13.58,-40.31 z"
           inkscape:connector-curvature="0"
           style="fill:#c94fa0;fill-opacity:1" />
      </g>
      <path
         id="path4556"
         d="m 219.84,909.08 c -10.107,0.758 -20.211,1.517 -30.315,2.278 -0.558,-4.424 0.501,-10.356 -1.964,-12.994 -9.151,-9.789 -29.854,-11.719 -43.606,-5.338 -8.953,-9.296 -17.5,-19.042 -27.032,-27.702 -4.577,-4.161 -11.14,-9.096 -16.587,-8.851 -32.096,1.429 -71.452,-31.025 -67.354,-69.469 0.737,-6.894 0.961,-14.213 -0.506,-20.918 -7.235,-33.061 36.691,-64.579 65.295,-58.518 8.63,1.827 17.254,3.262 18.747,13.438 1.567,10.672 -7.756,10.828 -14.676,13.058 -17.974,5.79 -27.579,15.227 -26.956,26.262 0.716,12.678 16.172,30.666 29.687,34.235 13.579,3.582 24.715,-0.685 33.904,-10.987 17.339,-19.439 26.576,-43.234 31.002,-67.901 9.026,-50.334 16.128,-101.05 22.676,-151.78 2.972,-23.033 1.749,-46.589 4.407,-69.679 1.209,-10.498 -2.252,-14.364 -10.484,-19.202 -55.937,-32.875 -96.486,-78.661 -115.07,-141.86 -19.398,-65.99 -8.694,-130.02 13.895,-193.08 32.835,-91.66 131.58,-149.18 245.06,-106.27 48.114,18.188 80.117,58.286 104.96,102.8 36.214,64.905 44.232,135.44 34.287,207.36 -5.767,41.687 -5.154,80.18 16.346,117.19 26.946,46.385 66.231,64.665 118.88,54.038 31.623,-6.385 60.447,-19.12 84.149,-41.364 4.088,-3.835 7.441,-12.452 6.041,-17.427 -5.393,-19.193 -13.567,-37.6 -19.101,-56.762 -1.577,-5.458 2.273,-12.489 3.639,-18.796 5.578,1.682 11.16,3.359 16.74,5.041 6.368,13.952 12.737,27.901 19.107,41.854 1.242,2.327 2.487,4.657 4.017,7.524 25.854,-44.923 16.194,-87.715 -25.454,-114.29 -8.388,-5.354 -10.223,-11.714 -6.043,-19.946 4.368,-8.604 19.391,-15.094 26.23,-10.246 45.912,32.542 86.413,69.281 88.015,131.3 0.807,31.235 -14.736,56.118 -34.799,78.517 -4.658,5.198 -9.108,11.201 -14.955,14.591 -16.367,9.487 -19.279,24.65 -19.736,41.328 -7.504,14.799 -15.004,29.599 -22.508,44.396 -6.172,5.845 -12.345,11.688 -18.512,17.528 -16.015,8.035 -32.037,16.077 -48.061,24.122 -7.705,2.262 -15.404,4.519 -23.108,6.779 -7.249,0.842 -14.489,1.842 -21.761,2.508 -18.608,1.706 -37.235,3.269 -55.854,4.886 -45.859,0.342 -84.905,-18.868 -121.43,-43.81 -44.579,-30.437 -71.902,-73.354 -86.06,-125.04 -0.858,-3.129 -1.639,-6.282 -2.634,-9.367 -0.25,-0.78 -1.184,-1.336 -4.214,-4.551 0,5.984 -0.61,9.577 0.089,12.896 17.743,84.002 53.315,159.76 108.16,225.73 19.841,23.863 42.829,45.325 65.837,66.289 29.133,26.55 62.115,24.901 90.443,-2.756 18.783,-18.342 29.545,-41.505 38.702,-65.634 3.584,-9.441 6.704,-20.045 20.367,-18.927 -0.99,6.702 -1.189,13.646 -3.128,20.06 -3.155,10.432 -8.688,20.286 -10.683,30.857 -0.861,4.57 4.596,10.331 7.182,15.549 -1.751,5.83 -3.502,11.66 -5.247,17.486 -20.224,5.266 -34.189,29.504 -27.215,47.226 -8.535,6.518 -17.069,13.038 -25.61,19.564 -3.689,-3.705 -7.811,-10.882 -10.988,-10.48 -11.088,1.382 -22.054,4.856 -32.534,8.905 -1.793,0.693 -1.002,8.088 -1.404,12.387 -8.556,-0.947 -17.115,-1.894 -25.67,-2.84 -6.081,-14.189 -26.813,-26.893 -41.129,-24.608 -2.393,0.385 -4.327,3.625 -6.473,5.546 -7.369,-5.741 -14.741,-11.481 -22.11,-17.223 1.505,-3.401 4.859,-7.213 4.215,-10.14 -3.485,-15.75 -23.007,-29.191 -39.739,-28.297 -44.171,-55.103 -74.605,-117.87 -101.69,-182.48 -5.341,-12.742 -10.3,-25.65 -17.802,-37.943 5.942,48.68 11.885,97.361 17.826,146.02 -0.426,18.917 2.79,38.906 -2.294,56.492 -5.077,17.567 -6.551,33.059 -0.313,49.712 -1.116,5.006 -2.229,10.008 -3.344,15.017 -17.866,4.813 -28.641,30.009 -21.359,49.95 -5.715,5.722 -11.429,11.448 -17.145,17.173 -2.166,-2.531 -3.999,-6.813 -6.548,-7.291 -13.16,-2.49 -35.16,13.24 -38.75,26.86 z M 195.49,794.99 c -0.862,1.006 -1.723,2.015 -2.583,3.019 -10.655,19.703 -18.774,41.454 -43.085,50.821 42.559,14.597 88.453,-3.911 99.852,-42.537 5.871,-19.899 7.871,-42.746 4.716,-63.197 -12.638,-81.923 -27.982,-163.43 -27.621,-246.78 0.015,-2.979 -1.707,-5.967 -2.618,-8.948 -3.186,2.192 -3.442,3.787 -3.445,5.387 -0.139,62.331 -0.289,124.66 -0.289,186.99 0,4.063 0.364,8.501 2,12.113 4.719,10.407 2.092,19.343 -2.424,29.227 -4.884,10.7 -7.32,22.519 -10.827,33.849 -4.523,13.44 -9.051,26.879 -13.577,40.315 l -0.09,-0.25 z M 398.82,447.06 c -1.672,1.385 -3.344,2.771 -5.019,4.16 21.641,63.006 51.83,119.67 119.97,143.91 36.274,12.903 72.994,9.136 108.22,-6.056 -5.59,-1.258 -11.067,-0.837 -16.427,0.204 -72.158,14.033 -132.46,-11.238 -171.26,-73.703 -11.449,-18.429 -19.033,-39.244 -28.619,-58.854 -1.7,-3.51 -4.54,-6.46 -6.86,-9.66 z"
         inkscape:connector-curvature="0"
         style="fill:#b03686;fill-opacity:1" />
      <path
         id="path4558"
         d="m 195.49,794.99 c -0.864,1.009 -1.728,2.016 -2.587,3.024 0.87,-1 1.73,-2.01 2.59,-3.02 z"
         inkscape:connector-curvature="0"
         style="fill:#f9ae5a" />
      <path
         id="path4560"
         d="m 281.87,211.94 c -32.003,-20.856 -41.674,-70.82 -19.587,-101.17 19.894,-27.342 58.951,-27.401 83.602,-0.128 22.013,24.358 26.297,58.582 11.023,88.039 0.27,-2.305 0.469,-4.619 0.826,-6.909 2.476,-15.853 -0.444,-29.789 -15,-38.877 -16.128,-10.07 -32.723,-9.17 -48.449,0.567 -14.187,8.781 -21.216,22.037 -18.605,38.965 1.03,6.68 4.07,13.03 6.19,19.52 z"
         inkscape:connector-curvature="0"
         style="fill:#fefefe" />
      <path
         id="path4562"
         d="m 167.73,251.31 c -8.57,-8.368 -18.827,-15.614 -25.329,-25.36 -10.145,-15.206 -11.47,-33.332 -8.623,-51.146 6.788,-42.437 49.876,-59.846 84.588,-34.54 26.392,19.237 38.036,61.149 24.06,86.601 -0.908,-2.829 -2.495,-5.626 -2.615,-8.488 -0.722,-17.104 -7.169,-26.212 -23.145,-31.955 -17.511,-6.296 -38.655,-0.355 -50.206,14.106 -12.06,15.08 -11.67,30.46 1.26,50.78 z"
         inkscape:connector-curvature="0"
         style="fill:#fefefe" />
      <path
         id="path4564"
         d="m 167.73,251.31 c -12.93,-20.323 -13.314,-35.702 -1.269,-50.782 11.551,-14.461 32.695,-20.402 50.206,-14.106 15.975,5.743 22.423,14.851 23.145,31.955 0.12,2.862 1.707,5.659 2.615,8.488 -7.648,17.639 -18.903,30.406 -39.055,34.975 -13.319,3.022 -22.721,-4.284 -33.684,-7.836 -0.849,-0.938 -1.699,-1.878 -2.548,-2.818 l 0.58,0.13 z"
         inkscape:connector-curvature="0"
         style="fill:#c94fa0;fill-opacity:1" />
      <path
         id="path4566"
         d="m 281.87,211.94 c -2.125,-6.497 -5.164,-12.851 -6.191,-19.518 -2.61,-16.928 4.419,-30.184 18.605,-38.965 15.726,-9.738 32.321,-10.638 48.449,-0.567 14.556,9.089 17.476,23.025 15,38.877 -0.357,2.29 -0.556,4.604 -0.826,6.909 -9.441,7.427 -18.259,15.88 -28.461,22.053 -17.53,10.62 -32.2,0.47 -46.57,-8.79 z"
         inkscape:connector-curvature="0"
         style="fill:#c94fa0;fill-opacity:1" />
      <path
         id="path4568"
         d="m 167.14,251.18 c 0.849,0.94 1.7,1.881 2.548,2.818 -0.86,-0.94 -1.71,-1.88 -2.55,-2.82 z"
         inkscape:connector-curvature="0"
         style="fill:#fefefe" />
    </g>
  </g>
</svg>
